<svg xmlns="http://www.w3.org/2000/svg" xmlns:xlink="http://www.w3.org/1999/xlink" width="1728" zoomAndPan="magnify" viewBox="0 0 1296 863.999991" height="1152" preserveAspectRatio="xMidYMid meet" version="1.0"><defs><g/></defs><g fill="#bf254a" fill-opacity="0.4"><g transform="translate(110.767193, 528.982435)"><g><path d="M 118.78125 -251.140625 L 112.0625 -251.9375 L 83.1875 -253.390625 L 72.515625 -253.78125 L 61.703125 -253.65625 C 47.992188 -252.6875 33.929688 -250.222656 19.515625 -246.265625 C 14.585938 -244.859375 9.222656 -243.804688 3.421875 -243.109375 L 0.265625 -242.578125 L -2.765625 -242.046875 C -9.972656 -240.117188 -18.585938 -238.226562 -28.609375 -236.375 L -32.296875 -235.71875 L -35.984375 -235.203125 C -38.359375 -234.753906 -39.285156 -234.050781 -38.765625 -233.09375 C -38.492188 -232.5625 -38.050781 -232.207031 -37.4375 -232.03125 L -35.859375 -231.765625 C -28.390625 -231.148438 -22.722656 -231.109375 -18.859375 -231.640625 C -14.804688 -232.160156 -10.5 -232.507812 -5.9375 -232.6875 L 0.921875 -232.828125 L 7.90625 -232.828125 C 13.351562 -233.003906 17.96875 -233.398438 21.75 -234.015625 L 23.328125 -234.140625 C 24.472656 -234.054688 25.132812 -233.484375 25.3125 -232.421875 L 25.578125 -230.1875 C 25.484375 -220.25 25.878906 -210.84375 26.765625 -201.96875 L 27.03125 -196.046875 L 26.890625 -190.109375 L 27.15625 -178.5 L 27.546875 -166.90625 L 28.078125 -154.78125 L 28.21875 -142.640625 L 28.34375 -127.875 L 28.21875 -113.25 L 27.546875 -77.65625 L 27.03125 -69.078125 L 26.625 -60.640625 L 26.765625 -38.890625 L 26.890625 -17.140625 C 26.890625 -6.066406 27.550781 2.585938 28.875 8.828125 L 29.53125 14.109375 L 30.328125 19.375 L 31.109375 22.40625 L 32.03125 25.3125 C 32.820312 27.863281 34.492188 29.179688 37.046875 29.265625 C 38.453125 29.359375 40.078125 29.664062 41.921875 30.1875 C 44.210938 30.800781 46.628906 30.710938 49.171875 29.921875 L 54.578125 27.953125 C 56.691406 27.066406 58.671875 26.492188 60.515625 26.234375 C 64.472656 25.617188 67.15625 23.46875 68.5625 19.78125 C 69.875 16.175781 72.066406 12.265625 75.140625 8.046875 C 77.429688 4.796875 78.972656 0.578125 79.765625 -4.609375 L 81.21875 -15.828125 L 82.921875 -30.328125 C 83.273438 -32.867188 83.410156 -35.8125 83.328125 -39.15625 L 83.0625 -47.859375 C 82.882812 -54.796875 82.488281 -60.992188 81.875 -66.453125 L 81.078125 -74.09375 L 80.546875 -81.734375 C 80.460938 -93.253906 79.410156 -105.078125 77.390625 -117.203125 C 76.953125 -120.097656 76.644531 -123.832031 76.46875 -128.40625 L 75.9375 -139.75 L 75.671875 -147 L 75.40625 -154.375 L 74.484375 -168.75 L 73.953125 -183.125 C 73.953125 -185.226562 73.691406 -186.894531 73.171875 -188.125 C 71.148438 -192.519531 70.535156 -197.09375 71.328125 -201.84375 L 71.453125 -204.34375 L 71.328125 -206.984375 C 71.054688 -209.617188 71.097656 -211.859375 71.453125 -213.703125 C 71.984375 -215.898438 71.894531 -218.890625 71.1875 -222.671875 L 70.40625 -227.9375 L 69.875 -233.34375 C 69.695312 -234.84375 70.441406 -235.679688 72.109375 -235.859375 L 73.828125 -235.984375 C 81.566406 -236.515625 88.816406 -237.660156 95.578125 -239.421875 C 102.878906 -241.265625 108.640625 -242.050781 112.859375 -241.78125 L 118.25 -242.046875 L 123.53125 -242.84375 C 125.90625 -243.195312 127.09375 -244.472656 127.09375 -246.671875 C 127.09375 -248.078125 126.125 -249.085938 124.1875 -249.703125 Z M 118.78125 -251.140625 "/></g></g><g transform="translate(252.358982, 528.982435)"><g><path d="M 62.890625 -144.625 C 61.742188 -140.9375 60.773438 -136.71875 59.984375 -131.96875 L 58.40625 -119.4375 L 57.484375 -109.953125 C 57.046875 -106.347656 56.519531 -103.179688 55.90625 -100.453125 L 55.5 -97.5625 C 55.320312 -96.0625 55.984375 -95.3125 57.484375 -95.3125 C 58.617188 -95.3125 59.757812 -95.445312 60.90625 -95.71875 L 73.296875 -98.484375 C 75.929688 -99.097656 76.898438 -100.8125 76.203125 -103.625 L 75.015625 -107.84375 L 71.453125 -118.515625 L 68.6875 -127.625 L 65.78125 -136.84375 L 64.46875 -140.671875 Z M 1.453125 -0.265625 L 1.578125 -4.609375 C 1.492188 -6.367188 1.582031 -8.347656 1.84375 -10.546875 C 2.195312 -12.828125 2.375 -15.113281 2.375 -17.40625 C 2.113281 -23.644531 2.816406 -32.785156 4.484375 -44.828125 L 6.0625 -58.53125 L 7.640625 -74.21875 L 9.234375 -89.78125 L 10.015625 -94.921875 L 10.8125 -100.0625 L 12.390625 -116.140625 L 14.109375 -132.359375 L 15.15625 -141.0625 L 16.34375 -149.890625 L 17.40625 -158.078125 L 18.59375 -166.25 C 19.46875 -172.75 19.953125 -178.195312 20.046875 -182.59375 L 20.4375 -185.75 L 20.96875 -188.921875 L 22.9375 -205.53125 C 23.195312 -207.988281 24.253906 -209.523438 26.109375 -210.140625 C 28.648438 -211.109375 30.800781 -213 32.5625 -215.8125 L 33.359375 -216.875 L 34.140625 -217.796875 C 35.109375 -218.765625 35.988281 -218.894531 36.78125 -218.1875 C 37.65625 -217.570312 38.972656 -216.914062 40.734375 -216.21875 L 42.84375 -215.421875 L 44.6875 -214.359375 C 46.363281 -213.222656 48.382812 -212.609375 50.75 -212.515625 C 56.550781 -212.429688 60.859375 -209.179688 63.671875 -202.765625 C 67.273438 -194.585938 71.234375 -182.765625 75.546875 -167.296875 L 78.171875 -158.328125 L 80.546875 -149.375 L 81.875 -145.546875 L 83.1875 -141.859375 L 85.6875 -134.203125 L 88.203125 -126.4375 C 90.304688 -120.101562 91.84375 -114.914062 92.8125 -110.875 C 93.6875 -107.625 95.003906 -104.285156 96.765625 -100.859375 L 98.609375 -96.234375 L 100.203125 -91.625 L 106.78125 -75.140625 L 107.578125 -73.5625 L 107.96875 -71.984375 C 108.144531 -69.347656 108.847656 -66.445312 110.078125 -63.28125 L 111.671875 -59.328125 L 113.515625 -55.234375 C 115.097656 -51.898438 116.765625 -47.945312 118.515625 -43.375 L 122.875 -31.375 C 124.28125 -27.59375 125.945312 -23.503906 127.875 -19.109375 C 129.019531 -16.472656 129.8125 -13.660156 130.25 -10.671875 C 130.425781 -9.441406 130.425781 -8.125 130.25 -6.71875 C 129.8125 -3.382812 127.878906 -1.453125 124.453125 -0.921875 C 122.960938 -0.660156 121.820312 -1.097656 121.03125 -2.234375 L 117.859375 -6.59375 L 114.703125 -10.9375 C 112.148438 -14.363281 110.257812 -17.441406 109.03125 -20.171875 L 103.890625 -30.71875 L 98.875 -41.265625 C 95.1875 -49.347656 92.195312 -56.554688 89.90625 -62.890625 L 83.0625 -82.390625 L 82.65625 -83.71875 L 82.140625 -85.171875 C 81.523438 -86.753906 80.25 -87.410156 78.3125 -87.140625 C 71.1875 -86.171875 65.472656 -85.953125 61.171875 -86.484375 C 58.179688 -86.921875 56.203125 -86.742188 55.234375 -85.953125 C 54.273438 -85.160156 53.570312 -83.269531 53.125 -80.28125 L 44.953125 -28.875 L 43.640625 -22.546875 L 40.609375 -9.625 C 39.023438 -1.71875 36.695312 4.519531 33.625 9.09375 C 32.832031 10.320312 32.210938 12.035156 31.765625 14.234375 C 31.242188 17.046875 29.445312 19.597656 26.375 21.890625 C 23.289062 24.085938 20.300781 25.097656 17.40625 24.921875 L 11.078125 24.65625 C 9.398438 24.738281 7.816406 24.296875 6.328125 23.328125 L 4.484375 21.890625 L 2.640625 20.171875 C 0.878906 18.503906 0.0859375 16.085938 0.265625 12.921875 Z M 1.453125 -0.265625 "/></g></g><g transform="translate(407.925382, 528.982435)"><g><path d="M 57.34375 -57.484375 C 57.082031 -45.347656 51.941406 -33.742188 41.921875 -22.671875 C 41.566406 -22.328125 41.304688 -21.84375 41.140625 -21.21875 C 40.960938 -20.601562 40.960938 -20.164062 41.140625 -19.90625 C 41.484375 -19.289062 41.960938 -19.070312 42.578125 -19.25 L 43.5 -19.640625 L 44.296875 -20.046875 L 52.34375 -24.125 C 55.5 -25.707031 58.09375 -27.203125 60.125 -28.609375 C 76.289062 -39.773438 89.734375 -54.671875 100.453125 -73.296875 C 115.484375 -99.578125 120.9375 -124.671875 116.8125 -148.578125 C 113.90625 -165.015625 102.785156 -182.640625 83.453125 -201.453125 L 76.859375 -208.03125 C 74.222656 -210.582031 71.9375 -212.648438 70 -214.234375 C 64.644531 -218.710938 59.242188 -221.789062 53.796875 -223.46875 L 52.734375 -223.859375 L 51.8125 -224.515625 C 50.9375 -224.867188 50.191406 -224.78125 49.578125 -224.25 C 49.046875 -223.726562 48.867188 -223.023438 49.046875 -222.140625 L 49.3125 -220.953125 L 49.703125 -219.90625 L 52.34375 -209.484375 L 55.109375 -199.078125 C 57.046875 -190.984375 58.273438 -183.953125 58.796875 -177.984375 C 60.460938 -156.710938 60.816406 -136.628906 59.859375 -117.734375 L 59.59375 -103.234375 L 59.71875 -88.46875 C 59.71875 -76.332031 58.925781 -66.003906 57.34375 -57.484375 Z M 140.53125 -104.9375 C 138.164062 -87.539062 127.003906 -67.765625 107.046875 -45.609375 C 97.296875 -34.804688 85.390625 -26.109375 71.328125 -19.515625 C 63.328125 -15.816406 53.128906 -13.570312 40.734375 -12.78125 L 39.15625 -12.78125 L 37.4375 -12.65625 C 36.125 -12.476562 35.378906 -11.953125 35.203125 -11.078125 C 34.148438 -6.859375 31.554688 -4.304688 27.421875 -3.421875 L 24.78125 -2.90625 L 22.015625 -2.640625 C 19.734375 -2.367188 17.976562 -1.972656 16.75 -1.453125 C 12 0.660156 8.789062 0.484375 7.125 -1.984375 C 6.414062 -2.859375 5.882812 -4.21875 5.53125 -6.0625 L 5.140625 -8.5625 L 4.609375 -11.078125 C 3.296875 -18.546875 2.859375 -27.507812 3.296875 -37.96875 L 4.09375 -51.421875 L 4.875 -64.859375 C 5.488281 -78.578125 5.707031 -94.179688 5.53125 -111.671875 L 4.484375 -158.46875 C 4.390625 -164.269531 4.035156 -171.300781 3.421875 -179.5625 L 1.84375 -200.65625 C 0.613281 -217.882812 0.394531 -231.988281 1.1875 -242.96875 C 1.363281 -246.050781 2.285156 -247.632812 3.953125 -247.71875 C 8.703125 -247.894531 11.601562 -250.925781 12.65625 -256.8125 L 12.921875 -258.140625 L 13.3125 -259.453125 C 13.75 -260.421875 14.539062 -260.90625 15.6875 -260.90625 C 16.738281 -260.90625 17.53125 -260.460938 18.0625 -259.578125 L 18.453125 -258.265625 L 18.71875 -256.8125 C 19.425781 -252.507812 22.109375 -249.875 26.765625 -248.90625 C 29.753906 -248.207031 32.695312 -246.710938 35.59375 -244.421875 C 37.53125 -243.015625 39.945312 -240.6875 42.84375 -237.4375 C 44.6875 -235.5 47.015625 -234.3125 49.828125 -233.875 L 60.125 -232.03125 L 70.265625 -229.796875 C 77.734375 -228.035156 84.28125 -225.835938 89.90625 -223.203125 C 93.425781 -221.523438 96.988281 -218.625 100.59375 -214.5 L 104.9375 -209.21875 C 106.613281 -207.195312 108.109375 -205.570312 109.421875 -204.34375 C 129.992188 -184.914062 140.71875 -156 141.59375 -117.59375 L 141.59375 -110.875 C 141.5 -108.414062 141.144531 -106.4375 140.53125 -104.9375 Z M 140.53125 -104.9375 "/></g></g><g transform="translate(579.839435, 528.982435)"><g><path d="M 141.453125 -95.3125 C 135.390625 -98.300781 123.046875 -99.445312 104.421875 -98.75 C 102.742188 -98.476562 100.320312 -98.300781 97.15625 -98.21875 L 89.390625 -97.828125 C 82.878906 -97.378906 77.425781 -96.101562 73.03125 -94 L 71.59375 -93.609375 L 70 -93.078125 C 69.039062 -92.640625 68.601562 -91.804688 68.6875 -90.578125 C 68.863281 -89.429688 69.566406 -88.679688 70.796875 -88.328125 L 72.375 -88.203125 L 73.953125 -88.0625 C 78.703125 -87.363281 84.328125 -87.054688 90.828125 -87.140625 L 99.265625 -87.40625 L 107.703125 -87.796875 C 112.710938 -87.972656 114.957031 -85.78125 114.4375 -81.21875 C 114.164062 -79.019531 113.988281 -76.03125 113.90625 -72.25 L 113.640625 -63.28125 C 112.410156 -42.976562 109.113281 -25.753906 103.75 -11.609375 C 101.113281 -4.660156 97.03125 -1.800781 91.5 -3.03125 C 75.0625 -6.632812 64.207031 -14.941406 58.9375 -27.953125 C 51.632812 -45.878906 47.941406 -68.289062 47.859375 -95.1875 L 47.71875 -131.4375 C 47.894531 -144.976562 48.25 -157.109375 48.78125 -167.828125 L 49.703125 -178.375 L 51.15625 -188.921875 C 52.382812 -197.796875 52.910156 -204.914062 52.734375 -210.28125 C 52.648438 -213.613281 54.144531 -216.6875 57.21875 -219.5 C 58.445312 -220.644531 59.941406 -221.742188 61.703125 -222.796875 L 66.703125 -225.578125 C 68.816406 -226.628906 70.707031 -226.320312 72.375 -224.65625 L 76.0625 -219.90625 C 79.226562 -216.65625 82.304688 -212.613281 85.296875 -207.78125 C 88.367188 -202.769531 91.445312 -196.351562 94.53125 -188.53125 L 98.21875 -178.5 L 101.90625 -168.484375 L 102.828125 -166.765625 L 103.234375 -167.03125 L 103.359375 -167.296875 C 103.003906 -169.234375 103.441406 -171.785156 104.671875 -174.953125 L 106 -178.640625 C 106.351562 -180.046875 106.441406 -181.363281 106.265625 -182.59375 C 104.679688 -194.988281 99.671875 -209.316406 91.234375 -225.578125 C 87.535156 -232.867188 81.601562 -237.523438 73.4375 -239.546875 C 65.96875 -241.390625 58.492188 -240.773438 51.015625 -237.703125 C 40.828125 -233.390625 32.21875 -227.851562 25.1875 -221.09375 C 17.09375 -213.445312 11.992188 -205.097656 9.890625 -196.046875 C 6.023438 -179.171875 3.785156 -164.929688 3.171875 -153.328125 L 1.71875 -128.28125 L 0.65625 -103.359375 C 0.21875 -84.378906 0.96875 -67.632812 2.90625 -53.125 C 8 -14.539062 27.992188 10.550781 62.890625 22.15625 C 76.597656 26.632812 89.957031 25.578125 102.96875 18.984375 C 115.09375 12.660156 122.648438 2.597656 125.640625 -11.203125 C 127.578125 -20.429688 128.148438 -31.769531 127.359375 -45.21875 L 126.03125 -62.234375 L 124.84375 -79.234375 C 124.582031 -84.859375 126.472656 -87.800781 130.515625 -88.0625 L 135.921875 -88.984375 L 141.328125 -90.171875 L 142.390625 -90.4375 L 143.4375 -90.828125 C 144.050781 -91.097656 144.40625 -91.628906 144.5 -92.421875 C 144.582031 -93.390625 144.269531 -94.046875 143.5625 -94.390625 L 142.515625 -94.921875 Z M 141.453125 -95.3125 "/></g></g><g transform="translate(750.830637, 528.982435)"><g><path d="M 86.875 -44.171875 C 89.6875 -44.429688 91.796875 -44.828125 93.203125 -45.359375 C 98.921875 -47.460938 103.445312 -51.503906 106.78125 -57.484375 L 109.03125 -61.96875 L 111.140625 -66.578125 C 112.109375 -68.859375 113.117188 -71.757812 114.171875 -75.28125 L 116.8125 -84.25 C 119.007812 -91.539062 120.328125 -98.175781 120.765625 -104.15625 L 120.890625 -108.109375 L 120.890625 -117.203125 L 121.03125 -122.34375 C 121.113281 -126.382812 120.71875 -129.8125 119.84375 -132.625 L 119.703125 -133.6875 L 119.578125 -134.734375 C 118.867188 -140.796875 117.460938 -145.457031 115.359375 -148.71875 C 115.003906 -149.414062 114.609375 -150.378906 114.171875 -151.609375 C 113.734375 -153.015625 112.851562 -154.992188 111.53125 -157.546875 L 108.375 -163.609375 C 107.226562 -166.066406 106.4375 -168.21875 106 -170.0625 L 105.46875 -171.25 L 104.671875 -172.4375 L 96.640625 -183.640625 C 95.140625 -185.578125 93.160156 -186.59375 90.703125 -186.6875 C 87.628906 -186.769531 85.171875 -186.503906 83.328125 -185.890625 L 81.46875 -185.359375 L 79.5 -185.09375 C 75.363281 -184.914062 71.363281 -182.851562 67.5 -178.90625 C 65.039062 -176.351562 62.226562 -172.75 59.0625 -168.09375 C 54.3125 -161.238281 51.367188 -155.484375 50.234375 -150.828125 L 48.90625 -145.671875 L 47.71875 -140.28125 L 47.203125 -137.640625 L 46.53125 -134.875 L 46.015625 -133.15625 L 45.609375 -131.4375 L 44.953125 -125.515625 L 44.421875 -119.4375 C 44.078125 -111.269531 44.300781 -103.316406 45.09375 -95.578125 C 45.96875 -86.347656 47.59375 -78.789062 49.96875 -72.90625 C 53.21875 -64.382812 57.128906 -58.234375 61.703125 -54.453125 L 62.359375 -53.921875 L 62.890625 -53.265625 C 69.210938 -46.929688 77.207031 -43.898438 86.875 -44.171875 Z M 132.5 -143.703125 C 132.40625 -142.296875 132.535156 -140.625 132.890625 -138.6875 L 133.6875 -133.8125 L 134.46875 -127.875 L 134.875 -121.8125 L 135.796875 -109.6875 C 135.878906 -107.75 135.832031 -105.992188 135.65625 -104.421875 L 135 -96.765625 L 134.34375 -88.984375 L 133.953125 -82.921875 L 133.421875 -76.859375 L 133.15625 -74.75 L 132.765625 -72.640625 C 131.003906 -64.117188 128.539062 -55.640625 125.375 -47.203125 C 123.53125 -42.535156 121.113281 -38.09375 118.125 -33.875 C 115.488281 -30.1875 111.664062 -26.71875 106.65625 -23.46875 C 103.582031 -21.53125 101.382812 -19.90625 100.0625 -18.59375 C 98.75 -17.269531 97.164062 -16.210938 95.3125 -15.421875 L 89.78125 -13.3125 L 83.984375 -11.203125 C 78.703125 -9.535156 73.03125 -9.445312 66.96875 -10.9375 C 58.707031 -13.050781 51.8125 -15.601562 46.28125 -18.59375 L 44.296875 -19.640625 L 37.703125 -24.65625 L 31.25 -29.65625 C 29.050781 -31.507812 26.546875 -33.929688 23.734375 -36.921875 C 20.648438 -40.171875 18.097656 -43.640625 16.078125 -47.328125 C 11.953125 -55.148438 8.789062 -62.445312 6.59375 -69.21875 L 3.5625 -78.703125 C 2.507812 -82.304688 1.71875 -85.515625 1.1875 -88.328125 L 0.796875 -90.3125 L 0.53125 -92.15625 L 0.125 -105.59375 L 0 -119.046875 C 0.175781 -126.253906 1.007812 -133.59375 2.5 -141.0625 L 5.796875 -157.15625 C 6.148438 -158.46875 6.679688 -160.132812 7.390625 -162.15625 L 9.09375 -167.03125 C 10.851562 -172.132812 14.503906 -178.992188 20.046875 -187.609375 C 24.523438 -194.722656 30.234375 -200.125 37.171875 -203.8125 C 39.816406 -205.3125 42.628906 -206.410156 45.609375 -207.109375 L 51.546875 -208.4375 C 53.828125 -209.050781 55.757812 -209.664062 57.34375 -210.28125 C 59.019531 -211.070312 61 -211.25 63.28125 -210.8125 C 65.65625 -210.363281 68.378906 -210.363281 71.453125 -210.8125 C 78.484375 -211.6875 85.03125 -211.15625 91.09375 -209.21875 C 93.207031 -208.519531 94.96875 -207.816406 96.375 -207.109375 C 102.257812 -203.679688 106.609375 -200.390625 109.421875 -197.234375 C 115.398438 -190.546875 119.796875 -184.300781 122.609375 -178.5 L 123 -177.71875 L 123.265625 -176.921875 C 124.140625 -172.960938 125.851562 -168.21875 128.40625 -162.6875 C 129.195312 -161.019531 129.859375 -158.820312 130.390625 -156.09375 L 131.046875 -152.671875 L 131.578125 -149.234375 L 132.09375 -146.46875 Z M 132.5 -143.703125 "/></g></g><g transform="translate(906.792543, 528.982435)"><g><path d="M 57.078125 -105.59375 C 55.585938 -91.976562 54.753906 -75.0625 54.578125 -54.84375 L 54.578125 -30.1875 L 54.046875 -5.796875 C 53.785156 0.347656 54.359375 4.171875 55.765625 5.671875 C 57.085938 7.253906 60.691406 8 66.578125 7.90625 L 81.34375 8.171875 L 96.109375 8.703125 C 108.148438 9.054688 117.953125 8.878906 125.515625 8.171875 L 128.671875 7.640625 C 129.816406 7.640625 130.476562 8.082031 130.65625 8.96875 C 130.820312 9.757812 130.597656 10.769531 129.984375 12 C 129.546875 13.050781 128.890625 14.0625 128.015625 15.03125 C 126.960938 16.175781 125.378906 16.75 123.265625 16.75 L 111.265625 17.265625 L 99.265625 18.1875 C 89.515625 18.800781 81.519531 18.800781 75.28125 18.1875 C 67.8125 17.394531 60.03125 18.757812 51.9375 22.28125 C 43.945312 25.707031 35.816406 27.15625 27.546875 26.625 L 24.265625 26.5 C 23.023438 26.582031 22.007812 26.757812 21.21875 27.03125 C 16.832031 28.78125 13.671875 28.515625 11.734375 26.234375 C 10.410156 24.742188 9.351562 21.84375 8.5625 17.53125 C 4.519531 -5.84375 2.0625 -33.484375 1.1875 -65.390625 L 0.53125 -107.046875 L 0.125 -148.71875 C 0.0390625 -155.570312 0.128906 -163.65625 0.390625 -172.96875 L 1.3125 -197.359375 C 2.019531 -217.304688 1.800781 -233.476562 0.65625 -245.875 C 0.476562 -248.601562 1.316406 -250.273438 3.171875 -250.890625 C 12.128906 -254.140625 22.757812 -251.765625 35.0625 -243.765625 C 41.65625 -239.367188 46.007812 -233.21875 48.125 -225.3125 C 48.820312 -222.675781 49.4375 -219.070312 49.96875 -214.5 L 50.5 -209.09375 L 51.28125 -203.5625 C 55.851562 -176.925781 57.921875 -147.785156 57.484375 -116.140625 L 57.34375 -109.953125 L 57.21875 -107.453125 Z M 57.078125 -105.59375 "/></g></g><g transform="translate(1053.525934, 528.982435)"><g><path d="M 62.890625 -144.625 C 61.742188 -140.9375 60.773438 -136.71875 59.984375 -131.96875 L 58.40625 -119.4375 L 57.484375 -109.953125 C 57.046875 -106.347656 56.519531 -103.179688 55.90625 -100.453125 L 55.5 -97.5625 C 55.320312 -96.0625 55.984375 -95.3125 57.484375 -95.3125 C 58.617188 -95.3125 59.757812 -95.445312 60.90625 -95.71875 L 73.296875 -98.484375 C 75.929688 -99.097656 76.898438 -100.8125 76.203125 -103.625 L 75.015625 -107.84375 L 71.453125 -118.515625 L 68.6875 -127.625 L 65.78125 -136.84375 L 64.46875 -140.671875 Z M 1.453125 -0.265625 L 1.578125 -4.609375 C 1.492188 -6.367188 1.582031 -8.347656 1.84375 -10.546875 C 2.195312 -12.828125 2.375 -15.113281 2.375 -17.40625 C 2.113281 -23.644531 2.816406 -32.785156 4.484375 -44.828125 L 6.0625 -58.53125 L 7.640625 -74.21875 L 9.234375 -89.78125 L 10.015625 -94.921875 L 10.8125 -100.0625 L 12.390625 -116.140625 L 14.109375 -132.359375 L 15.15625 -141.0625 L 16.34375 -149.890625 L 17.40625 -158.078125 L 18.59375 -166.25 C 19.46875 -172.75 19.953125 -178.195312 20.046875 -182.59375 L 20.4375 -185.75 L 20.96875 -188.921875 L 22.9375 -205.53125 C 23.195312 -207.988281 24.253906 -209.523438 26.109375 -210.140625 C 28.648438 -211.109375 30.800781 -213 32.5625 -215.8125 L 33.359375 -216.875 L 34.140625 -217.796875 C 35.109375 -218.765625 35.988281 -218.894531 36.78125 -218.1875 C 37.65625 -217.570312 38.972656 -216.914062 40.734375 -216.21875 L 42.84375 -215.421875 L 44.6875 -214.359375 C 46.363281 -213.222656 48.382812 -212.609375 50.75 -212.515625 C 56.550781 -212.429688 60.859375 -209.179688 63.671875 -202.765625 C 67.273438 -194.585938 71.234375 -182.765625 75.546875 -167.296875 L 78.171875 -158.328125 L 80.546875 -149.375 L 81.875 -145.546875 L 83.1875 -141.859375 L 85.6875 -134.203125 L 88.203125 -126.4375 C 90.304688 -120.101562 91.84375 -114.914062 92.8125 -110.875 C 93.6875 -107.625 95.003906 -104.285156 96.765625 -100.859375 L 98.609375 -96.234375 L 100.203125 -91.625 L 106.78125 -75.140625 L 107.578125 -73.5625 L 107.96875 -71.984375 C 108.144531 -69.347656 108.847656 -66.445312 110.078125 -63.28125 L 111.671875 -59.328125 L 113.515625 -55.234375 C 115.097656 -51.898438 116.765625 -47.945312 118.515625 -43.375 L 122.875 -31.375 C 124.28125 -27.59375 125.945312 -23.503906 127.875 -19.109375 C 129.019531 -16.472656 129.8125 -13.660156 130.25 -10.671875 C 130.425781 -9.441406 130.425781 -8.125 130.25 -6.71875 C 129.8125 -3.382812 127.878906 -1.453125 124.453125 -0.921875 C 122.960938 -0.660156 121.820312 -1.097656 121.03125 -2.234375 L 117.859375 -6.59375 L 114.703125 -10.9375 C 112.148438 -14.363281 110.257812 -17.441406 109.03125 -20.171875 L 103.890625 -30.71875 L 98.875 -41.265625 C 95.1875 -49.347656 92.195312 -56.554688 89.90625 -62.890625 L 83.0625 -82.390625 L 82.65625 -83.71875 L 82.140625 -85.171875 C 81.523438 -86.753906 80.25 -87.410156 78.3125 -87.140625 C 71.1875 -86.171875 65.472656 -85.953125 61.171875 -86.484375 C 58.179688 -86.921875 56.203125 -86.742188 55.234375 -85.953125 C 54.273438 -85.160156 53.570312 -83.269531 53.125 -80.28125 L 44.953125 -28.875 L 43.640625 -22.546875 L 40.609375 -9.625 C 39.023438 -1.71875 36.695312 4.519531 33.625 9.09375 C 32.832031 10.320312 32.210938 12.035156 31.765625 14.234375 C 31.242188 17.046875 29.445312 19.597656 26.375 21.890625 C 23.289062 24.085938 20.300781 25.097656 17.40625 24.921875 L 11.078125 24.65625 C 9.398438 24.738281 7.816406 24.296875 6.328125 23.328125 L 4.484375 21.890625 L 2.640625 20.171875 C 0.878906 18.503906 0.0859375 16.085938 0.265625 12.921875 Z M 1.453125 -0.265625 "/></g></g></g><g fill="#bf254a" fill-opacity="1"><g transform="translate(98.834767, 517.049993)"><g><path d="M 118.78125 -251.140625 L 112.0625 -251.9375 L 83.1875 -253.390625 L 72.515625 -253.78125 L 61.703125 -253.65625 C 47.992188 -252.6875 33.929688 -250.222656 19.515625 -246.265625 C 14.585938 -244.859375 9.222656 -243.804688 3.421875 -243.109375 L 0.265625 -242.578125 L -2.765625 -242.046875 C -9.972656 -240.117188 -18.585938 -238.226562 -28.609375 -236.375 L -32.296875 -235.71875 L -35.984375 -235.203125 C -38.359375 -234.753906 -39.285156 -234.050781 -38.765625 -233.09375 C -38.492188 -232.5625 -38.050781 -232.207031 -37.4375 -232.03125 L -35.859375 -231.765625 C -28.390625 -231.148438 -22.722656 -231.109375 -18.859375 -231.640625 C -14.804688 -232.160156 -10.5 -232.507812 -5.9375 -232.6875 L 0.921875 -232.828125 L 7.90625 -232.828125 C 13.351562 -233.003906 17.96875 -233.398438 21.75 -234.015625 L 23.328125 -234.140625 C 24.472656 -234.054688 25.132812 -233.484375 25.3125 -232.421875 L 25.578125 -230.1875 C 25.484375 -220.25 25.878906 -210.84375 26.765625 -201.96875 L 27.03125 -196.046875 L 26.890625 -190.109375 L 27.15625 -178.5 L 27.546875 -166.90625 L 28.078125 -154.78125 L 28.21875 -142.640625 L 28.34375 -127.875 L 28.21875 -113.25 L 27.546875 -77.65625 L 27.03125 -69.078125 L 26.625 -60.640625 L 26.765625 -38.890625 L 26.890625 -17.140625 C 26.890625 -6.066406 27.550781 2.585938 28.875 8.828125 L 29.53125 14.109375 L 30.328125 19.375 L 31.109375 22.40625 L 32.03125 25.3125 C 32.820312 27.863281 34.492188 29.179688 37.046875 29.265625 C 38.453125 29.359375 40.078125 29.664062 41.921875 30.1875 C 44.210938 30.800781 46.628906 30.710938 49.171875 29.921875 L 54.578125 27.953125 C 56.691406 27.066406 58.671875 26.492188 60.515625 26.234375 C 64.472656 25.617188 67.15625 23.46875 68.5625 19.78125 C 69.875 16.175781 72.066406 12.265625 75.140625 8.046875 C 77.429688 4.796875 78.972656 0.578125 79.765625 -4.609375 L 81.21875 -15.828125 L 82.921875 -30.328125 C 83.273438 -32.867188 83.410156 -35.8125 83.328125 -39.15625 L 83.0625 -47.859375 C 82.882812 -54.796875 82.488281 -60.992188 81.875 -66.453125 L 81.078125 -74.09375 L 80.546875 -81.734375 C 80.460938 -93.253906 79.410156 -105.078125 77.390625 -117.203125 C 76.953125 -120.097656 76.644531 -123.832031 76.46875 -128.40625 L 75.9375 -139.75 L 75.671875 -147 L 75.40625 -154.375 L 74.484375 -168.75 L 73.953125 -183.125 C 73.953125 -185.226562 73.691406 -186.894531 73.171875 -188.125 C 71.148438 -192.519531 70.535156 -197.09375 71.328125 -201.84375 L 71.453125 -204.34375 L 71.328125 -206.984375 C 71.054688 -209.617188 71.097656 -211.859375 71.453125 -213.703125 C 71.984375 -215.898438 71.894531 -218.890625 71.1875 -222.671875 L 70.40625 -227.9375 L 69.875 -233.34375 C 69.695312 -234.84375 70.441406 -235.679688 72.109375 -235.859375 L 73.828125 -235.984375 C 81.566406 -236.515625 88.816406 -237.660156 95.578125 -239.421875 C 102.878906 -241.265625 108.640625 -242.050781 112.859375 -241.78125 L 118.25 -242.046875 L 123.53125 -242.84375 C 125.90625 -243.195312 127.09375 -244.472656 127.09375 -246.671875 C 127.09375 -248.078125 126.125 -249.085938 124.1875 -249.703125 Z M 118.78125 -251.140625 "/></g></g><g transform="translate(240.426556, 517.049993)"><g><path d="M 62.890625 -144.625 C 61.742188 -140.9375 60.773438 -136.71875 59.984375 -131.96875 L 58.40625 -119.4375 L 57.484375 -109.953125 C 57.046875 -106.347656 56.519531 -103.179688 55.90625 -100.453125 L 55.5 -97.5625 C 55.320312 -96.0625 55.984375 -95.3125 57.484375 -95.3125 C 58.617188 -95.3125 59.757812 -95.445312 60.90625 -95.71875 L 73.296875 -98.484375 C 75.929688 -99.097656 76.898438 -100.8125 76.203125 -103.625 L 75.015625 -107.84375 L 71.453125 -118.515625 L 68.6875 -127.625 L 65.78125 -136.84375 L 64.46875 -140.671875 Z M 1.453125 -0.265625 L 1.578125 -4.609375 C 1.492188 -6.367188 1.582031 -8.347656 1.84375 -10.546875 C 2.195312 -12.828125 2.375 -15.113281 2.375 -17.40625 C 2.113281 -23.644531 2.816406 -32.785156 4.484375 -44.828125 L 6.0625 -58.53125 L 7.640625 -74.21875 L 9.234375 -89.78125 L 10.015625 -94.921875 L 10.8125 -100.0625 L 12.390625 -116.140625 L 14.109375 -132.359375 L 15.15625 -141.0625 L 16.34375 -149.890625 L 17.40625 -158.078125 L 18.59375 -166.25 C 19.46875 -172.75 19.953125 -178.195312 20.046875 -182.59375 L 20.4375 -185.75 L 20.96875 -188.921875 L 22.9375 -205.53125 C 23.195312 -207.988281 24.253906 -209.523438 26.109375 -210.140625 C 28.648438 -211.109375 30.800781 -213 32.5625 -215.8125 L 33.359375 -216.875 L 34.140625 -217.796875 C 35.109375 -218.765625 35.988281 -218.894531 36.78125 -218.1875 C 37.65625 -217.570312 38.972656 -216.914062 40.734375 -216.21875 L 42.84375 -215.421875 L 44.6875 -214.359375 C 46.363281 -213.222656 48.382812 -212.609375 50.75 -212.515625 C 56.550781 -212.429688 60.859375 -209.179688 63.671875 -202.765625 C 67.273438 -194.585938 71.234375 -182.765625 75.546875 -167.296875 L 78.171875 -158.328125 L 80.546875 -149.375 L 81.875 -145.546875 L 83.1875 -141.859375 L 85.6875 -134.203125 L 88.203125 -126.4375 C 90.304688 -120.101562 91.84375 -114.914062 92.8125 -110.875 C 93.6875 -107.625 95.003906 -104.285156 96.765625 -100.859375 L 98.609375 -96.234375 L 100.203125 -91.625 L 106.78125 -75.140625 L 107.578125 -73.5625 L 107.96875 -71.984375 C 108.144531 -69.347656 108.847656 -66.445312 110.078125 -63.28125 L 111.671875 -59.328125 L 113.515625 -55.234375 C 115.097656 -51.898438 116.765625 -47.945312 118.515625 -43.375 L 122.875 -31.375 C 124.28125 -27.59375 125.945312 -23.503906 127.875 -19.109375 C 129.019531 -16.472656 129.8125 -13.660156 130.25 -10.671875 C 130.425781 -9.441406 130.425781 -8.125 130.25 -6.71875 C 129.8125 -3.382812 127.878906 -1.453125 124.453125 -0.921875 C 122.960938 -0.660156 121.820312 -1.097656 121.03125 -2.234375 L 117.859375 -6.59375 L 114.703125 -10.9375 C 112.148438 -14.363281 110.257812 -17.441406 109.03125 -20.171875 L 103.890625 -30.71875 L 98.875 -41.265625 C 95.1875 -49.347656 92.195312 -56.554688 89.90625 -62.890625 L 83.0625 -82.390625 L 82.65625 -83.71875 L 82.140625 -85.171875 C 81.523438 -86.753906 80.25 -87.410156 78.3125 -87.140625 C 71.1875 -86.171875 65.472656 -85.953125 61.171875 -86.484375 C 58.179688 -86.921875 56.203125 -86.742188 55.234375 -85.953125 C 54.273438 -85.160156 53.570312 -83.269531 53.125 -80.28125 L 44.953125 -28.875 L 43.640625 -22.546875 L 40.609375 -9.625 C 39.023438 -1.71875 36.695312 4.519531 33.625 9.09375 C 32.832031 10.320312 32.210938 12.035156 31.765625 14.234375 C 31.242188 17.046875 29.445312 19.597656 26.375 21.890625 C 23.289062 24.085938 20.300781 25.097656 17.40625 24.921875 L 11.078125 24.65625 C 9.398438 24.738281 7.816406 24.296875 6.328125 23.328125 L 4.484375 21.890625 L 2.640625 20.171875 C 0.878906 18.503906 0.0859375 16.085938 0.265625 12.921875 Z M 1.453125 -0.265625 "/></g></g><g transform="translate(395.992955, 517.049993)"><g><path d="M 57.34375 -57.484375 C 57.082031 -45.347656 51.941406 -33.742188 41.921875 -22.671875 C 41.566406 -22.328125 41.304688 -21.84375 41.140625 -21.21875 C 40.960938 -20.601562 40.960938 -20.164062 41.140625 -19.90625 C 41.484375 -19.289062 41.960938 -19.070312 42.578125 -19.25 L 43.5 -19.640625 L 44.296875 -20.046875 L 52.34375 -24.125 C 55.5 -25.707031 58.09375 -27.203125 60.125 -28.609375 C 76.289062 -39.773438 89.734375 -54.671875 100.453125 -73.296875 C 115.484375 -99.578125 120.9375 -124.671875 116.8125 -148.578125 C 113.90625 -165.015625 102.785156 -182.640625 83.453125 -201.453125 L 76.859375 -208.03125 C 74.222656 -210.582031 71.9375 -212.648438 70 -214.234375 C 64.644531 -218.710938 59.242188 -221.789062 53.796875 -223.46875 L 52.734375 -223.859375 L 51.8125 -224.515625 C 50.9375 -224.867188 50.191406 -224.78125 49.578125 -224.25 C 49.046875 -223.726562 48.867188 -223.023438 49.046875 -222.140625 L 49.3125 -220.953125 L 49.703125 -219.90625 L 52.34375 -209.484375 L 55.109375 -199.078125 C 57.046875 -190.984375 58.273438 -183.953125 58.796875 -177.984375 C 60.460938 -156.710938 60.816406 -136.628906 59.859375 -117.734375 L 59.59375 -103.234375 L 59.71875 -88.46875 C 59.71875 -76.332031 58.925781 -66.003906 57.34375 -57.484375 Z M 140.53125 -104.9375 C 138.164062 -87.539062 127.003906 -67.765625 107.046875 -45.609375 C 97.296875 -34.804688 85.390625 -26.109375 71.328125 -19.515625 C 63.328125 -15.816406 53.128906 -13.570312 40.734375 -12.78125 L 39.15625 -12.78125 L 37.4375 -12.65625 C 36.125 -12.476562 35.378906 -11.953125 35.203125 -11.078125 C 34.148438 -6.859375 31.554688 -4.304688 27.421875 -3.421875 L 24.78125 -2.90625 L 22.015625 -2.640625 C 19.734375 -2.367188 17.976562 -1.972656 16.75 -1.453125 C 12 0.660156 8.789062 0.484375 7.125 -1.984375 C 6.414062 -2.859375 5.882812 -4.21875 5.53125 -6.0625 L 5.140625 -8.5625 L 4.609375 -11.078125 C 3.296875 -18.546875 2.859375 -27.507812 3.296875 -37.96875 L 4.09375 -51.421875 L 4.875 -64.859375 C 5.488281 -78.578125 5.707031 -94.179688 5.53125 -111.671875 L 4.484375 -158.46875 C 4.390625 -164.269531 4.035156 -171.300781 3.421875 -179.5625 L 1.84375 -200.65625 C 0.613281 -217.882812 0.394531 -231.988281 1.1875 -242.96875 C 1.363281 -246.050781 2.285156 -247.632812 3.953125 -247.71875 C 8.703125 -247.894531 11.601562 -250.925781 12.65625 -256.8125 L 12.921875 -258.140625 L 13.3125 -259.453125 C 13.75 -260.421875 14.539062 -260.90625 15.6875 -260.90625 C 16.738281 -260.90625 17.53125 -260.460938 18.0625 -259.578125 L 18.453125 -258.265625 L 18.71875 -256.8125 C 19.425781 -252.507812 22.109375 -249.875 26.765625 -248.90625 C 29.753906 -248.207031 32.695312 -246.710938 35.59375 -244.421875 C 37.53125 -243.015625 39.945312 -240.6875 42.84375 -237.4375 C 44.6875 -235.5 47.015625 -234.3125 49.828125 -233.875 L 60.125 -232.03125 L 70.265625 -229.796875 C 77.734375 -228.035156 84.28125 -225.835938 89.90625 -223.203125 C 93.425781 -221.523438 96.988281 -218.625 100.59375 -214.5 L 104.9375 -209.21875 C 106.613281 -207.195312 108.109375 -205.570312 109.421875 -204.34375 C 129.992188 -184.914062 140.71875 -156 141.59375 -117.59375 L 141.59375 -110.875 C 141.5 -108.414062 141.144531 -106.4375 140.53125 -104.9375 Z M 140.53125 -104.9375 "/></g></g><g transform="translate(567.907009, 517.049993)"><g><path d="M 141.453125 -95.3125 C 135.390625 -98.300781 123.046875 -99.445312 104.421875 -98.75 C 102.742188 -98.476562 100.320312 -98.300781 97.15625 -98.21875 L 89.390625 -97.828125 C 82.878906 -97.378906 77.425781 -96.101562 73.03125 -94 L 71.59375 -93.609375 L 70 -93.078125 C 69.039062 -92.640625 68.601562 -91.804688 68.6875 -90.578125 C 68.863281 -89.429688 69.566406 -88.679688 70.796875 -88.328125 L 72.375 -88.203125 L 73.953125 -88.0625 C 78.703125 -87.363281 84.328125 -87.054688 90.828125 -87.140625 L 99.265625 -87.40625 L 107.703125 -87.796875 C 112.710938 -87.972656 114.957031 -85.78125 114.4375 -81.21875 C 114.164062 -79.019531 113.988281 -76.03125 113.90625 -72.25 L 113.640625 -63.28125 C 112.410156 -42.976562 109.113281 -25.753906 103.75 -11.609375 C 101.113281 -4.660156 97.03125 -1.800781 91.5 -3.03125 C 75.0625 -6.632812 64.207031 -14.941406 58.9375 -27.953125 C 51.632812 -45.878906 47.941406 -68.289062 47.859375 -95.1875 L 47.71875 -131.4375 C 47.894531 -144.976562 48.25 -157.109375 48.78125 -167.828125 L 49.703125 -178.375 L 51.15625 -188.921875 C 52.382812 -197.796875 52.910156 -204.914062 52.734375 -210.28125 C 52.648438 -213.613281 54.144531 -216.6875 57.21875 -219.5 C 58.445312 -220.644531 59.941406 -221.742188 61.703125 -222.796875 L 66.703125 -225.578125 C 68.816406 -226.628906 70.707031 -226.320312 72.375 -224.65625 L 76.0625 -219.90625 C 79.226562 -216.65625 82.304688 -212.613281 85.296875 -207.78125 C 88.367188 -202.769531 91.445312 -196.351562 94.53125 -188.53125 L 98.21875 -178.5 L 101.90625 -168.484375 L 102.828125 -166.765625 L 103.234375 -167.03125 L 103.359375 -167.296875 C 103.003906 -169.234375 103.441406 -171.785156 104.671875 -174.953125 L 106 -178.640625 C 106.351562 -180.046875 106.441406 -181.363281 106.265625 -182.59375 C 104.679688 -194.988281 99.671875 -209.316406 91.234375 -225.578125 C 87.535156 -232.867188 81.601562 -237.523438 73.4375 -239.546875 C 65.96875 -241.390625 58.492188 -240.773438 51.015625 -237.703125 C 40.828125 -233.390625 32.21875 -227.851562 25.1875 -221.09375 C 17.09375 -213.445312 11.992188 -205.097656 9.890625 -196.046875 C 6.023438 -179.171875 3.785156 -164.929688 3.171875 -153.328125 L 1.71875 -128.28125 L 0.65625 -103.359375 C 0.21875 -84.378906 0.96875 -67.632812 2.90625 -53.125 C 8 -14.539062 27.992188 10.550781 62.890625 22.15625 C 76.597656 26.632812 89.957031 25.578125 102.96875 18.984375 C 115.09375 12.660156 122.648438 2.597656 125.640625 -11.203125 C 127.578125 -20.429688 128.148438 -31.769531 127.359375 -45.21875 L 126.03125 -62.234375 L 124.84375 -79.234375 C 124.582031 -84.859375 126.472656 -87.800781 130.515625 -88.0625 L 135.921875 -88.984375 L 141.328125 -90.171875 L 142.390625 -90.4375 L 143.4375 -90.828125 C 144.050781 -91.097656 144.40625 -91.628906 144.5 -92.421875 C 144.582031 -93.390625 144.269531 -94.046875 143.5625 -94.390625 L 142.515625 -94.921875 Z M 141.453125 -95.3125 "/></g></g><g transform="translate(738.898211, 517.049993)"><g><path d="M 86.875 -44.171875 C 89.6875 -44.429688 91.796875 -44.828125 93.203125 -45.359375 C 98.921875 -47.460938 103.445312 -51.503906 106.78125 -57.484375 L 109.03125 -61.96875 L 111.140625 -66.578125 C 112.109375 -68.859375 113.117188 -71.757812 114.171875 -75.28125 L 116.8125 -84.25 C 119.007812 -91.539062 120.328125 -98.175781 120.765625 -104.15625 L 120.890625 -108.109375 L 120.890625 -117.203125 L 121.03125 -122.34375 C 121.113281 -126.382812 120.71875 -129.8125 119.84375 -132.625 L 119.703125 -133.6875 L 119.578125 -134.734375 C 118.867188 -140.796875 117.460938 -145.457031 115.359375 -148.71875 C 115.003906 -149.414062 114.609375 -150.378906 114.171875 -151.609375 C 113.734375 -153.015625 112.851562 -154.992188 111.53125 -157.546875 L 108.375 -163.609375 C 107.226562 -166.066406 106.4375 -168.21875 106 -170.0625 L 105.46875 -171.25 L 104.671875 -172.4375 L 96.640625 -183.640625 C 95.140625 -185.578125 93.160156 -186.59375 90.703125 -186.6875 C 87.628906 -186.769531 85.171875 -186.503906 83.328125 -185.890625 L 81.46875 -185.359375 L 79.5 -185.09375 C 75.363281 -184.914062 71.363281 -182.851562 67.5 -178.90625 C 65.039062 -176.351562 62.226562 -172.75 59.0625 -168.09375 C 54.3125 -161.238281 51.367188 -155.484375 50.234375 -150.828125 L 48.90625 -145.671875 L 47.71875 -140.28125 L 47.203125 -137.640625 L 46.53125 -134.875 L 46.015625 -133.15625 L 45.609375 -131.4375 L 44.953125 -125.515625 L 44.421875 -119.4375 C 44.078125 -111.269531 44.300781 -103.316406 45.09375 -95.578125 C 45.96875 -86.347656 47.59375 -78.789062 49.96875 -72.90625 C 53.21875 -64.382812 57.128906 -58.234375 61.703125 -54.453125 L 62.359375 -53.921875 L 62.890625 -53.265625 C 69.210938 -46.929688 77.207031 -43.898438 86.875 -44.171875 Z M 132.5 -143.703125 C 132.40625 -142.296875 132.535156 -140.625 132.890625 -138.6875 L 133.6875 -133.8125 L 134.46875 -127.875 L 134.875 -121.8125 L 135.796875 -109.6875 C 135.878906 -107.75 135.832031 -105.992188 135.65625 -104.421875 L 135 -96.765625 L 134.34375 -88.984375 L 133.953125 -82.921875 L 133.421875 -76.859375 L 133.15625 -74.75 L 132.765625 -72.640625 C 131.003906 -64.117188 128.539062 -55.640625 125.375 -47.203125 C 123.53125 -42.535156 121.113281 -38.09375 118.125 -33.875 C 115.488281 -30.1875 111.664062 -26.71875 106.65625 -23.46875 C 103.582031 -21.53125 101.382812 -19.90625 100.0625 -18.59375 C 98.75 -17.269531 97.164062 -16.210938 95.3125 -15.421875 L 89.78125 -13.3125 L 83.984375 -11.203125 C 78.703125 -9.535156 73.03125 -9.445312 66.96875 -10.9375 C 58.707031 -13.050781 51.8125 -15.601562 46.28125 -18.59375 L 44.296875 -19.640625 L 37.703125 -24.65625 L 31.25 -29.65625 C 29.050781 -31.507812 26.546875 -33.929688 23.734375 -36.921875 C 20.648438 -40.171875 18.097656 -43.640625 16.078125 -47.328125 C 11.953125 -55.148438 8.789062 -62.445312 6.59375 -69.21875 L 3.5625 -78.703125 C 2.507812 -82.304688 1.71875 -85.515625 1.1875 -88.328125 L 0.796875 -90.3125 L 0.53125 -92.15625 L 0.125 -105.59375 L 0 -119.046875 C 0.175781 -126.253906 1.007812 -133.59375 2.5 -141.0625 L 5.796875 -157.15625 C 6.148438 -158.46875 6.679688 -160.132812 7.390625 -162.15625 L 9.09375 -167.03125 C 10.851562 -172.132812 14.503906 -178.992188 20.046875 -187.609375 C 24.523438 -194.722656 30.234375 -200.125 37.171875 -203.8125 C 39.816406 -205.3125 42.628906 -206.410156 45.609375 -207.109375 L 51.546875 -208.4375 C 53.828125 -209.050781 55.757812 -209.664062 57.34375 -210.28125 C 59.019531 -211.070312 61 -211.25 63.28125 -210.8125 C 65.65625 -210.363281 68.378906 -210.363281 71.453125 -210.8125 C 78.484375 -211.6875 85.03125 -211.15625 91.09375 -209.21875 C 93.207031 -208.519531 94.96875 -207.816406 96.375 -207.109375 C 102.257812 -203.679688 106.609375 -200.390625 109.421875 -197.234375 C 115.398438 -190.546875 119.796875 -184.300781 122.609375 -178.5 L 123 -177.71875 L 123.265625 -176.921875 C 124.140625 -172.960938 125.851562 -168.21875 128.40625 -162.6875 C 129.195312 -161.019531 129.859375 -158.820312 130.390625 -156.09375 L 131.046875 -152.671875 L 131.578125 -149.234375 L 132.09375 -146.46875 Z M 132.5 -143.703125 "/></g></g><g transform="translate(894.860117, 517.049993)"><g><path d="M 57.078125 -105.59375 C 55.585938 -91.976562 54.753906 -75.0625 54.578125 -54.84375 L 54.578125 -30.1875 L 54.046875 -5.796875 C 53.785156 0.347656 54.359375 4.171875 55.765625 5.671875 C 57.085938 7.253906 60.691406 8 66.578125 7.90625 L 81.34375 8.171875 L 96.109375 8.703125 C 108.148438 9.054688 117.953125 8.878906 125.515625 8.171875 L 128.671875 7.640625 C 129.816406 7.640625 130.476562 8.082031 130.65625 8.96875 C 130.820312 9.757812 130.597656 10.769531 129.984375 12 C 129.546875 13.050781 128.890625 14.0625 128.015625 15.03125 C 126.960938 16.175781 125.378906 16.75 123.265625 16.75 L 111.265625 17.265625 L 99.265625 18.1875 C 89.515625 18.800781 81.519531 18.800781 75.28125 18.1875 C 67.8125 17.394531 60.03125 18.757812 51.9375 22.28125 C 43.945312 25.707031 35.816406 27.15625 27.546875 26.625 L 24.265625 26.5 C 23.023438 26.582031 22.007812 26.757812 21.21875 27.03125 C 16.832031 28.78125 13.671875 28.515625 11.734375 26.234375 C 10.410156 24.742188 9.351562 21.84375 8.5625 17.53125 C 4.519531 -5.84375 2.0625 -33.484375 1.1875 -65.390625 L 0.53125 -107.046875 L 0.125 -148.71875 C 0.0390625 -155.570312 0.128906 -163.65625 0.390625 -172.96875 L 1.3125 -197.359375 C 2.019531 -217.304688 1.800781 -233.476562 0.65625 -245.875 C 0.476562 -248.601562 1.316406 -250.273438 3.171875 -250.890625 C 12.128906 -254.140625 22.757812 -251.765625 35.0625 -243.765625 C 41.65625 -239.367188 46.007812 -233.21875 48.125 -225.3125 C 48.820312 -222.675781 49.4375 -219.070312 49.96875 -214.5 L 50.5 -209.09375 L 51.28125 -203.5625 C 55.851562 -176.925781 57.921875 -147.785156 57.484375 -116.140625 L 57.34375 -109.953125 L 57.21875 -107.453125 Z M 57.078125 -105.59375 "/></g></g><g transform="translate(1041.593508, 517.049993)"><g><path d="M 62.890625 -144.625 C 61.742188 -140.9375 60.773438 -136.71875 59.984375 -131.96875 L 58.40625 -119.4375 L 57.484375 -109.953125 C 57.046875 -106.347656 56.519531 -103.179688 55.90625 -100.453125 L 55.5 -97.5625 C 55.320312 -96.0625 55.984375 -95.3125 57.484375 -95.3125 C 58.617188 -95.3125 59.757812 -95.445312 60.90625 -95.71875 L 73.296875 -98.484375 C 75.929688 -99.097656 76.898438 -100.8125 76.203125 -103.625 L 75.015625 -107.84375 L 71.453125 -118.515625 L 68.6875 -127.625 L 65.78125 -136.84375 L 64.46875 -140.671875 Z M 1.453125 -0.265625 L 1.578125 -4.609375 C 1.492188 -6.367188 1.582031 -8.347656 1.84375 -10.546875 C 2.195312 -12.828125 2.375 -15.113281 2.375 -17.40625 C 2.113281 -23.644531 2.816406 -32.785156 4.484375 -44.828125 L 6.0625 -58.53125 L 7.640625 -74.21875 L 9.234375 -89.78125 L 10.015625 -94.921875 L 10.8125 -100.0625 L 12.390625 -116.140625 L 14.109375 -132.359375 L 15.15625 -141.0625 L 16.34375 -149.890625 L 17.40625 -158.078125 L 18.59375 -166.25 C 19.46875 -172.75 19.953125 -178.195312 20.046875 -182.59375 L 20.4375 -185.75 L 20.96875 -188.921875 L 22.9375 -205.53125 C 23.195312 -207.988281 24.253906 -209.523438 26.109375 -210.140625 C 28.648438 -211.109375 30.800781 -213 32.5625 -215.8125 L 33.359375 -216.875 L 34.140625 -217.796875 C 35.109375 -218.765625 35.988281 -218.894531 36.78125 -218.1875 C 37.65625 -217.570312 38.972656 -216.914062 40.734375 -216.21875 L 42.84375 -215.421875 L 44.6875 -214.359375 C 46.363281 -213.222656 48.382812 -212.609375 50.75 -212.515625 C 56.550781 -212.429688 60.859375 -209.179688 63.671875 -202.765625 C 67.273438 -194.585938 71.234375 -182.765625 75.546875 -167.296875 L 78.171875 -158.328125 L 80.546875 -149.375 L 81.875 -145.546875 L 83.1875 -141.859375 L 85.6875 -134.203125 L 88.203125 -126.4375 C 90.304688 -120.101562 91.84375 -114.914062 92.8125 -110.875 C 93.6875 -107.625 95.003906 -104.285156 96.765625 -100.859375 L 98.609375 -96.234375 L 100.203125 -91.625 L 106.78125 -75.140625 L 107.578125 -73.5625 L 107.96875 -71.984375 C 108.144531 -69.347656 108.847656 -66.445312 110.078125 -63.28125 L 111.671875 -59.328125 L 113.515625 -55.234375 C 115.097656 -51.898438 116.765625 -47.945312 118.515625 -43.375 L 122.875 -31.375 C 124.28125 -27.59375 125.945312 -23.503906 127.875 -19.109375 C 129.019531 -16.472656 129.8125 -13.660156 130.25 -10.671875 C 130.425781 -9.441406 130.425781 -8.125 130.25 -6.71875 C 129.8125 -3.382812 127.878906 -1.453125 124.453125 -0.921875 C 122.960938 -0.660156 121.820312 -1.097656 121.03125 -2.234375 L 117.859375 -6.59375 L 114.703125 -10.9375 C 112.148438 -14.363281 110.257812 -17.441406 109.03125 -20.171875 L 103.890625 -30.71875 L 98.875 -41.265625 C 95.1875 -49.347656 92.195312 -56.554688 89.90625 -62.890625 L 83.0625 -82.390625 L 82.65625 -83.71875 L 82.140625 -85.171875 C 81.523438 -86.753906 80.25 -87.410156 78.3125 -87.140625 C 71.1875 -86.171875 65.472656 -85.953125 61.171875 -86.484375 C 58.179688 -86.921875 56.203125 -86.742188 55.234375 -85.953125 C 54.273438 -85.160156 53.570312 -83.269531 53.125 -80.28125 L 44.953125 -28.875 L 43.640625 -22.546875 L 40.609375 -9.625 C 39.023438 -1.71875 36.695312 4.519531 33.625 9.09375 C 32.832031 10.320312 32.210938 12.035156 31.765625 14.234375 C 31.242188 17.046875 29.445312 19.597656 26.375 21.890625 C 23.289062 24.085938 20.300781 25.097656 17.40625 24.921875 L 11.078125 24.65625 C 9.398438 24.738281 7.816406 24.296875 6.328125 23.328125 L 4.484375 21.890625 L 2.640625 20.171875 C 0.878906 18.503906 0.0859375 16.085938 0.265625 12.921875 Z M 1.453125 -0.265625 "/></g></g></g></svg>